<svg width="54" height="46" viewBox="0 0 54 46" fill="none" xmlns="http://www.w3.org/2000/svg">
<path d="M25.9393 35.7273C26.5251 36.3131 27.4749 36.3131 28.0607 35.7273L37.6066 26.1814C38.1924 25.5956 38.1924 24.6458 37.6066 24.0601C37.0208 23.4743 36.0711 23.4743 35.4853 24.0601L27 32.5453L18.5147 24.0601C17.9289 23.4743 16.9792 23.4743 16.3934 24.0601C15.8076 24.6458 15.8076 25.5956 16.3934 26.1814L25.9393 35.7273ZM25.5 0L25.5 34.6667H28.5L28.5 0L25.5 0Z" fill="white"/>
<path d="M2 22V38C2 41.3137 4.68629 44 8 44H46C49.3137 44 52 41.3137 52 38V22" stroke="white" stroke-width="3" stroke-linecap="round"/>
</svg>
