<svg width="16" height="17" viewBox="0 0 16 17" fill="none" xmlns="http://www.w3.org/2000/svg">
<path d="M15.1462 9.51249C14.7456 13.1522 11.9297 16.0257 8.40835 16.3804C8.52476 16.2834 8.63604 16.1678 8.74179 16.0367C9.08147 15.6157 9.38073 15.0156 9.62922 14.2874C9.90515 13.4788 10.1219 12.502 10.2602 11.4158C11.3555 11.2733 12.3396 11.0427 13.1495 10.7461C13.8533 10.4883 14.4334 10.1777 14.8403 9.82533C14.9557 9.7254 15.0584 9.621 15.1462 9.51249ZM0.198901 7.72357C0.590376 4.16681 3.28824 1.3418 6.69701 0.883881C6.59256 0.974812 6.49233 1.08074 6.39664 1.19935C6.05696 1.62039 5.7577 2.22046 5.50921 2.94867C5.23086 3.7644 5.01276 4.75123 4.87462 5.84891C3.86353 5.99274 2.95331 6.21247 2.19565 6.48999C1.4918 6.7478 0.911685 7.05834 0.504751 7.41074C0.389362 7.51067 0.286726 7.61506 0.198901 7.72357ZM5.0067 8.61803C5.0067 7.74213 5.05534 6.90052 5.14487 6.11502C5.93462 6.01326 6.7853 5.95772 7.67255 5.95772C8.48182 5.95772 9.26067 6.00393 9.99061 6.08927C10.082 6.88212 10.1317 7.73256 10.1317 8.61803C10.1317 9.50351 10.082 10.354 9.99061 11.1468C9.26067 11.2321 8.48182 11.2784 7.67255 11.2784C6.7853 11.2784 5.93462 11.2228 5.14487 11.121C5.05534 10.3355 5.0067 9.49393 5.0067 8.61803ZM4.83825 6.15729C4.75275 6.9335 4.7067 7.76047 4.7067 8.61803C4.7067 9.4756 4.75275 10.3026 4.83825 11.0788C3.87716 10.9375 3.0151 10.7267 2.29883 10.4644C1.61422 10.2136 1.07071 9.91859 0.701143 9.59854C0.331164 9.27815 0.15 8.94633 0.15 8.61803C0.15 8.28973 0.331164 7.95792 0.701143 7.63752C1.07071 7.31748 1.61422 7.02245 2.29883 6.77169C3.0151 6.50933 3.87716 6.29857 4.83825 6.15729ZM4.87462 11.3872C5.01276 12.4848 5.23086 13.4717 5.50921 14.2874C5.7577 15.0156 6.05696 15.6157 6.39664 16.0367C6.49233 16.1553 6.59256 16.2613 6.69701 16.3522C3.28824 15.8943 0.590374 13.0693 0.1989 9.51249C0.286726 9.621 0.389362 9.7254 0.504751 9.82533C0.911685 10.1777 1.4918 10.4883 2.19565 10.7461C2.95331 11.0236 3.86353 11.2433 4.87462 11.3872ZM5.79314 14.1905C5.52874 13.4157 5.31861 12.4765 5.18231 11.4282C5.9648 11.5257 6.80241 11.5784 7.67255 11.5784C8.46535 11.5784 9.23116 11.5346 9.95286 11.4531C9.81648 12.4914 9.6076 13.4218 9.34529 14.1905C9.10291 14.9008 8.81767 15.4649 8.50831 15.8483C8.20633 16.2226 7.89693 16.407 7.5946 16.4168C7.56946 16.4165 7.54434 16.4161 7.51925 16.4156C7.22475 16.3969 6.92392 16.2125 6.63013 15.8483C6.32076 15.4649 6.03552 14.9008 5.79314 14.1905ZM8.40835 0.855716C11.9297 1.21037 14.7456 4.08383 15.1462 7.72358C15.0584 7.61506 14.9557 7.51067 14.8403 7.41074C14.4334 7.05834 13.8533 6.7478 13.1495 6.48999C12.3396 6.19336 11.3555 5.96276 10.2602 5.82028C10.1219 4.73407 9.90515 3.7573 9.62922 2.94867C9.38073 2.22046 9.08147 1.62039 8.74179 1.19935C8.63604 1.06827 8.52476 0.952692 8.40835 0.855716ZM10.4317 8.61803C10.4317 7.74958 10.3845 6.91251 10.2969 6.12775C11.3426 6.26837 12.2782 6.49037 13.0463 6.77169C13.7309 7.02245 14.2744 7.31748 14.644 7.63752C15.0139 7.95792 15.1951 8.28973 15.1951 8.61803C15.1951 8.94633 15.0139 9.27815 14.644 9.59854C14.2744 9.91859 13.7309 10.2136 13.0463 10.4644C12.2782 10.7457 11.3426 10.9677 10.2969 11.1083C10.3845 10.3236 10.4317 9.48648 10.4317 8.61803ZM9.95286 5.78296C9.23116 5.70146 8.46535 5.65772 7.67255 5.65772C6.80241 5.65772 5.9648 5.71041 5.18232 5.80788C5.31861 4.75952 5.52874 3.8204 5.79314 3.04556C6.03552 2.33525 6.32076 1.77119 6.63013 1.38772C6.92392 1.02356 7.22475 0.839161 7.51925 0.820442C7.54434 0.819922 7.56946 0.819529 7.5946 0.819264C7.89693 0.829035 8.20633 1.01343 8.50831 1.38772C8.81767 1.77119 9.10291 2.33525 9.34529 3.04556C9.6076 3.81426 9.81648 4.74463 9.95286 5.78296Z" stroke="#83E993" stroke-width="0.3"/>
</svg>
