<svg width="4" height="27" viewBox="0 0 4 27" fill="none" xmlns="http://www.w3.org/2000/svg">
<path d="M4 2C4 3.10457 3.10457 4 2 4C0.89543 4 0 3.10457 0 2C0 0.89543 0.89543 0 2 0C3.10457 0 4 0.89543 4 2Z" fill="white"/>
<path d="M4 13C4 14.1046 3.10457 15 2 15C0.89543 15 0 14.1046 0 13C0 11.8954 0.89543 11 2 11C3.10457 11 4 11.8954 4 13Z" fill="white"/>
<path d="M4 25C4 26.1046 3.10457 27 2 27C0.89543 27 0 26.1046 0 25C0 23.8954 0.89543 23 2 23C3.10457 23 4 23.8954 4 25Z" fill="white"/>
</svg>
